<svg width="42" height="42" viewBox="0 0 42 42" fill="none" xmlns="http://www.w3.org/2000/svg">
<path d="M19.1067 0.578988C19.1472 -0.0830756 20.1015 -0.137632 20.2172 0.515502L21.1871 5.99473C22.4396 13.0699 28.3771 18.3651 35.5488 18.8031L41.1029 19.1422C41.7651 19.1827 41.8196 20.137 41.1664 20.2527L35.6872 21.2226C28.6121 22.4751 23.3168 28.4126 22.8789 35.5843L22.5397 41.1384C22.4992 41.8006 21.545 41.8551 21.4293 41.2019L20.4593 35.7227C19.2068 28.6476 13.2694 23.3523 6.09758 22.9144L0.543498 22.5752C-0.118566 22.5347 -0.173122 21.5805 0.480011 21.4648L5.95924 20.4948C13.0344 19.2423 18.3296 13.3049 18.7676 6.13307L19.1067 0.578988Z" fill="white"/>
</svg>
